<?xml version="1.0" encoding="utf-8"?>
<!-- Generator: Adobe Illustrator 27.5.0, SVG Export Plug-In . SVG Version: 6.00 Build 0)  -->
<svg version="1.1" id="Calque_1" xmlns="http://www.w3.org/2000/svg" xmlns:xlink="http://www.w3.org/1999/xlink" x="0px" y="0px"
	 viewBox="0 0 448 512" style="enable-background:new 0 0 448 512;" xml:space="preserve">
<path d="M400,160h-64v-48C336,50.1,285.9,0,224,0S112,50.1,112,112v48H48c-26.5,0-48,21.5-48,48v208c0,53,43,96,96,96h256
	c53,0,96-43,96-96V208C448,181.5,426.5,160,400,160z M160,112c0-35.3,28.7-64,64-64s64,28.7,64,64v48H160V112z M397,279.2v29v88.5
	c0,39.3-31.9,71.2-71.2,71.2H120.2C80.9,468,49,436.1,49,396.8v-88.5v-29v-41.5c0-16.4,13.3-29.7,29.7-29.7h41.5h205.5h41.5
	c16.4,0,29.7,13.3,29.7,29.7V279.2z"/>
<path d="M136.3,279.8L136.3,279.8c-13.1,0-23.8-10.6-23.8-23.7v0c0-13.1,10.6-23.7,23.7-23.7h0c13.1,0,23.7,10.6,23.7,23.7v0
	C160,269.1,149.4,279.8,136.3,279.8z"/>
<path d="M312.3,281.8L312.3,281.8c-13.1,0-23.8-10.6-23.8-23.7v0c0-13.1,10.6-23.7,23.7-23.7h0c13.1,0,23.7,10.6,23.7,23.7v0
	C336,271.1,325.4,281.8,312.3,281.8z"/>
<path d="M400,160h-64v-48C336,50.1,285.9,0,224,0S112,50.1,112,112v48H48c-26.5,0-48,21.5-48,48v208c0,53,43,96,96,96h256
	c53,0,96-43,96-96V208C448,181.5,426.5,160,400,160z M160,112c0-35.3,28.7-64,64-64s64,28.7,64,64v48H160V112z M397,279.2v29v88.5
	c0,39.3-31.9,71.2-71.2,71.2H120.2C80.9,468,49,436.1,49,396.8v-88.5v-29v-41.5c0-16.4,13.3-29.7,29.7-29.7h41.5h205.5h41.5
	c16.4,0,29.7,13.3,29.7,29.7V279.2z"/>
<path d="M288.5,256v33.6c0,35.3-28.7,64-64,64s-64-28.7-64-64V256h-48v33.6c0,61.9,50.1,112,112,112s112-50.1,112-112V256H288.5z"/>
</svg>
