<?xml version="1.0" encoding="utf-8"?>
<!-- Generator: Adobe Illustrator 27.5.0, SVG Export Plug-In . SVG Version: 6.00 Build 0)  -->
<svg version="1.1" id="Calque_1" xmlns="http://www.w3.org/2000/svg" xmlns:xlink="http://www.w3.org/1999/xlink" x="0px" y="0px"
	 viewBox="0 0 512 512" style="enable-background:new 0 0 512 512;" xml:space="preserve">
<path d="M388.3,391.3c-12.9-9.4-29.6-11.8-44.6-6.4c-26.5,9.6-56.2,15.1-87.8,15.1c-124.7,0-208-80.5-208-160s83.3-160,208-160
	s208,80.5,208,160c0,32-12.4,62.8-35.7,89.2c-8.6,9.7-12.8,22.5-11.8,35.5c1.4,18.1,5.7,34.7,11.3,49.4c-17-7.9-31.1-16.7-39.4-22.7
	V391.3z M490.7,431.9c-1.8-2.7-3.5-5.4-5.1-8.1c-10-16.6-19.5-38.4-21.4-62.9c30-34.1,47.7-75.8,47.7-120.9
	c0-114.9-114.6-208-256-208s-256,93.1-256,208s114.6,208,256,208c37.1,0,72.3-6.4,104.1-17.9c11.9,8.7,31.3,20.6,54.3,30.6
	c15.1,6.6,32.3,12.6,50.1,16.1c0.8,0.2,1.6,0.3,2.4,0.5c4.4,0.8,8.7,1.5,13.2,1.9c0.2,0,0.5,0.1,0.7,0.1c5.1,0.5,10.2,0.8,15.3,0.8
	c6.5,0,12.3-3.9,14.8-9.9c2.5-6,1.1-12.8-3.4-17.4c-4.1-4.2-7.8-8.7-11.3-13.5c-1.7-2.3-3.3-4.6-4.8-6.9c-0.1-0.2-0.2-0.3-0.3-0.5
	L490.7,431.9z"/>
</svg>
