<?xml version="1.0" encoding="utf-8"?>
<!-- Generator: Adobe Illustrator 27.5.0, SVG Export Plug-In . SVG Version: 6.00 Build 0)  -->
<svg version="1.1" id="Calque_1" xmlns="http://www.w3.org/2000/svg" xmlns:xlink="http://www.w3.org/1999/xlink" x="0px" y="0px"
	 viewBox="0 0 512 512" style="enable-background:new 0 0 512 512;" xml:space="preserve">
<path d="M123.6,391.3c12.9-9.4,29.6-11.8,44.6-6.4c26.5,9.6,56.2,15.1,87.8,15.1c124.7,0,208-80.5,208-160S380.7,80,256,80
	S48,160.5,48,240c0,32,12.4,62.8,35.7,89.2c8.6,9.7,12.8,22.5,11.8,35.5c-1.4,18.1-5.7,34.7-11.3,49.4c17-7.9,31.1-16.7,39.4-22.7
	V391.3z M21.2,431.9c1.8-2.7,3.5-5.4,5.1-8.1c10-16.6,19.5-38.4,21.4-62.9C17.7,326.8,0,285.1,0,240C0,125.1,114.6,32,256,32
	s256,93.1,256,208S397.4,448,256,448c-37.1,0-72.3-6.4-104.1-17.9c-11.9,8.7-31.3,20.6-54.3,30.6c-15.1,6.6-32.3,12.6-50.1,16.1
	c-0.8,0.2-1.6,0.3-2.4,0.5c-4.4,0.8-8.7,1.5-13.2,1.9c-0.2,0-0.5,0.1-0.7,0.1c-5.1,0.5-10.2,0.8-15.3,0.8c-6.5,0-12.3-3.9-14.8-9.9
	S0,457.4,4.5,452.8c4.1-4.2,7.8-8.7,11.3-13.5c1.7-2.3,3.3-4.6,4.8-6.9c0.1-0.2,0.2-0.3,0.3-0.5L21.2,431.9z"/>
<path d="M349.3,185.4c7-3,15.7-3.4,21-0.9c5.3,2.5,5.7,7.1,1.1,11.2l-105.5,93.1c-4.1,3.6-11.4,6-18.3,6c-6.8-0.1-11.9-2.6-12.6-6.3
	l-5.8-30.9l-91.1,39c-7,3-15.7,3.4-21,0.9c-5.3-2.5-5.7-7.1-1.1-11.2l105.5-93.1c4.1-3.6,11.4-6,18.3-6s11.8,2.6,12.5,6.3l5.8,30.9
	L349.3,185.4z"/>
</svg>
