<?xml version="1.0" encoding="utf-8"?>
<!-- Generator: Adobe Illustrator 27.5.0, SVG Export Plug-In . SVG Version: 6.00 Build 0)  -->
<svg version="1.1" id="Calque_1" xmlns="http://www.w3.org/2000/svg" xmlns:xlink="http://www.w3.org/1999/xlink" x="0px" y="0px"
	 viewBox="0 0 498.1 512" style="enable-background:new 0 0 498.1 512;" xml:space="preserve">
<path d="M194.1,128c0-44.2,35.8-80,80-80s80,35.8,80,80s-35.8,80-80,80S194.1,172.2,194.1,128z M402.1,128c0-70.7-57.3-128-128-128
	s-128,57.3-128,128s57.3,128,128,128S402.1,198.7,402.1,128z M448.8,464H99.4c8.9-63.3,63.3-112,129-112h91.4
	C385.5,352,439.9,400.7,448.8,464z M498.1,482.3c0-98.5-79.8-178.3-178.3-178.3h-91.4c-98.5,0-178.3,79.8-178.3,178.3
	c0,16.4,13.3,29.7,29.7,29.7h388.6C484.8,512,498.1,498.7,498.1,482.3z"/>
<path d="M15.9,253.3h115.8c8.7,0,15.8-7.1,15.8-15.8v-6c0-8.7-7.1-15.8-15.8-15.8H15.9c-8.7,0-15.8,7.1-15.8,15.8v6
	C0.1,246.2,7.2,253.3,15.9,253.3z"/>
<path d="M55.1,176.6l0,115.8c0,8.7,7.1,15.8,15.8,15.8h6c8.7,0,15.8-7.1,15.8-15.8l0-115.8c0-8.7-7.1-15.8-15.8-15.8h-6
	C62.1,160.8,55.1,167.9,55.1,176.6z"/>
</svg>
